<?xml version="1.0" standalone="no"?>
<!DOCTYPE svg PUBLIC "-//W3C//DTD SVG 1.1//EN" "http://www.w3.org/Graphics/SVG/1.1/DTD/svg11.dtd">
<svg xmlns="http://www.w3.org/2000/svg" width="866" height="650" viewBox="0 0 866 650"><path fill-rule="evenodd" d="M396.172 146.75c2.482 9.206 19.234 67.033 30.489 105.25 4.131 14.025 8.566 29.1 9.856 33.5 2.437 8.314 15.587 52.648 36.483 123 23.52 79.189 25.252 85.049 26.884 91l1.646 6 50.735.259c38.658.198 50.735-.023 50.735-.929 0-1.575-8.614-29.532-21.979-71.33-5.979-18.7-17.191-54.925-24.916-80.5-7.724-25.575-19.689-64.725-26.587-87a40311 40311 0 0 1-25.203-81.75L491.655 143h-96.494zm-95.516 262.172c-11.931 3.919-23.449 13.841-29.161 25.123-14.489 28.617.713 64.777 30.892 73.479 8.14 2.347 22.898 1.648 30.937-1.467 12.62-4.889 23.533-16.203 28.714-29.768 2.709-7.094 3.734-22.254 2.051-30.358-3.07-14.789-13.347-27.584-27.78-34.589-7.4-3.591-8.385-3.803-18.809-4.064-8.699-.217-12.223.127-16.844 1.644"/></svg>
